<?xml version="1.0" standalone="no"?>
<!DOCTYPE svg PUBLIC "-//W3C//DTD SVG 20010904//EN"
 "http://www.w3.org/TR/2001/REC-SVG-20010904/DTD/svg10.dtd">
<svg version="1.0" xmlns="http://www.w3.org/2000/svg"
 width="700.000000pt" height="700.000000pt" viewBox="0 0 700.000000 700.000000"
 preserveAspectRatio="xMidYMid meet">
<metadata>
Created by potrace 1.14, written by Peter Selinger 2001-2017
</metadata>
<g transform="translate(0.000000,700.000000) scale(0.100000,-0.100000)"
fill="#000000" stroke="none">
<path d="M435 6990 c-216 -44 -386 -217 -426 -435 -6 -31 -8 -1247 -7 -3090
l3 -3040 23 -59 c63 -166 180 -283 339 -338 l68 -23 3065 0 3065 0 68 23 c161
56 283 179 339 341 l23 66 0 3065 0 3065 -23 68 c-56 160 -171 276 -338 339
l-59 23 -3050 1 c-1677 1 -3068 -2 -3090 -6z m3436 -510 c821 -41 1605 -186
2374 -442 115 -38 211 -71 213 -73 11 -11 -137 -642 -214 -913 -40 -141 -60
-180 -110 -218 -70 -54 -94 -52 -307 21 -681 234 -1280 353 -1982 396 -240 15
-792 6 -1015 -15 -482 -47 -886 -121 -1315 -242 -372 -105 -543 -173 -659
-262 -27 -20 -57 -43 -67 -50 -16 -13 -20 -5 -53 100 -105 338 -226 815 -226
892 0 108 43 218 115 295 58 62 102 82 318 147 944 284 1966 411 2928 364z
m-1809 -2106 c37 -31 71 -60 73 -64 3 -4 -60 -24 -140 -44 -272 -68 -630 -189
-789 -267 -32 -16 -60 -29 -63 -29 -10 0 9 74 28 112 29 58 87 117 138 142 45
23 165 64 311 107 58 17 348 94 369 98 2 1 35 -24 73 -55z m1938 -628 c487
-58 934 -171 1355 -342 186 -75 225 -93 225 -106 0 -34 -408 -792 -499 -927
-51 -77 -99 -113 -159 -119 -40 -3 -66 3 -148 36 -281 112 -592 190 -914 229
-181 21 -629 24 -800 5 -227 -27 -487 -81 -680 -143 -144 -47 -242 -102 -329
-186 -41 -40 -76 -71 -77 -70 -96 138 -438 731 -525 911 -33 68 -39 90 -39
145 1 132 50 189 220 254 419 162 902 277 1330 316 63 6 131 13 150 15 96 11
763 -3 890 -18z m-462 -2084 c232 -254 366 -375 606 -547 l28 -20 -128 -150
c-210 -244 -304 -338 -383 -379 -196 -103 -397 -61 -568 118 -237 247 -588
664 -624 741 -27 57 -26 165 2 223 26 52 58 74 154 103 221 67 454 107 691
118 29 1 48 -17 222 -207z"/>
</g>
</svg>
