<svg width="56" height="56" viewBox="0 0 56 56" fill="none" xmlns="http://www.w3.org/2000/svg">
<rect width="56" height="56" rx="15" fill="#C8C7C7"/>
<path d="M36.486 13.4043L32.614 13.3979C28.2639 13.3979 25.4527 16.3687 25.4527 20.9667V24.4564H21.5595C21.2231 24.4564 20.9507 24.7373 20.9507 25.0838V30.14C20.9507 30.4865 21.2234 30.7671 21.5595 30.7671H25.4527V43.5254C25.4527 43.8719 25.7251 44.1525 26.0615 44.1525H31.141C31.4774 44.1525 31.7498 43.8716 31.7498 43.5254V30.7671H36.3018C36.6382 30.7671 36.9106 30.4865 36.9106 30.14L36.9125 25.0838C36.9125 24.9174 36.8482 24.7581 36.7342 24.6404C36.6202 24.5226 36.4649 24.4564 36.3034 24.4564H31.7498V21.4981C31.7498 20.0763 32.0788 19.3545 33.877 19.3545L36.4854 19.3535C36.8215 19.3535 37.0939 19.0726 37.0939 18.7264V14.0315C37.0939 13.6856 36.8218 13.405 36.486 13.4043Z" fill="white"/>
</svg>
