<svg width="56" height="56" viewBox="0 0 56 56" fill="none" xmlns="http://www.w3.org/2000/svg">
<rect width="56" height="56" rx="15" fill="#EBD96B"/>
<path d="M41.9979 39.9898C39.9951 39.9898 38.0064 39.9898 35.9869 39.9898C35.9869 39.893 35.9869 39.8026 35.9869 39.7121C35.9869 36.4487 35.9865 33.1852 35.9873 29.9222C35.9873 29.2276 35.9359 28.5415 35.7619 27.8641C35.0433 25.0702 31.9401 25.2335 30.7056 26.5576C30.0851 27.223 29.6798 27.9751 29.6626 28.9045C29.6588 29.1256 29.6459 29.3471 29.6459 29.5682C29.6446 32.9457 29.6451 36.3236 29.6451 39.701C29.6451 39.7923 29.6451 39.8835 29.6451 39.9881C27.6341 39.9881 25.6459 39.9881 23.6448 39.9881C23.6448 33.7598 23.6448 27.538 23.6448 21.3046C25.6424 21.3046 27.6307 21.3046 29.6421 21.3046C29.6421 22.1483 29.6421 22.9796 29.6421 23.8109C29.6579 23.8177 29.6738 23.825 29.6901 23.8319C29.7329 23.7736 29.7766 23.7162 29.819 23.6575C30.4202 22.8202 31.111 22.078 32.0288 21.5762C33.0538 21.0153 34.161 20.8272 35.3133 20.8607C36.5611 20.8971 37.745 21.1786 38.812 21.8518C40.1798 22.7148 41.0132 23.9776 41.5013 25.4923C41.8818 26.6728 42.0065 27.8906 42.0078 29.1239C42.0108 32.6727 42.009 36.222 42.0086 39.7708C42.0086 39.8403 42.0022 39.9097 41.9979 39.9898Z" fill="#31405B"/>
<path d="M19.9786 40.0001C17.9827 40.0001 16.006 40.0001 14.0105 40.0001C14.0105 33.7684 14.0105 27.5401 14.0105 21.2993C15.9949 21.2993 17.9771 21.2993 19.9786 21.2993C19.9786 27.5255 19.9786 33.7534 19.9786 40.0001Z" fill="#31405B"/>
<path d="M17.2502 12C19.1292 11.9974 20.4588 13.3373 20.4652 15.2398C20.4712 17.1222 19.1215 18.4544 17.2061 18.4552C15.3365 18.4565 14.0034 17.1162 14 15.2325C13.9966 13.3476 15.3489 12.0026 17.2502 12Z" fill="#31405B"/>
</svg>
