<svg width="56" height="56" viewBox="0 0 56 56" fill="none" xmlns="http://www.w3.org/2000/svg">
<rect width="56" height="56" rx="15" fill="#EBD96B"/>
<path d="M43.3693 19.0697C42.2917 19.5281 41.1354 19.839 39.9206 19.9778C41.161 19.2646 42.1106 18.1335 42.5606 16.7897C41.397 17.4501 40.1127 17.9297 38.7442 18.1897C37.6483 17.0673 36.0895 16.3682 34.3606 16.3682C31.0437 16.3682 28.3542 18.9502 28.3542 22.133C28.3542 22.5844 28.4073 23.0253 28.5098 23.4469C23.5188 23.2063 19.0932 20.9105 16.1312 17.422C15.6134 18.2722 15.3189 19.2628 15.3189 20.3203C15.3189 22.321 16.38 24.0863 17.99 25.1191C17.0057 25.0875 16.08 24.8275 15.2695 24.3954V24.4674C15.2695 27.2603 17.3405 29.5912 20.0867 30.1216C19.5835 30.2516 19.053 30.3237 18.5041 30.3237C18.1163 30.3237 17.7412 30.2868 17.3735 30.2165C18.1382 32.5088 20.3556 34.1757 22.9828 34.2214C20.9282 35.7671 18.3376 36.6858 15.5238 36.6858C15.039 36.6858 14.5615 36.6577 14.0913 36.6067C16.7496 38.2456 19.9056 39.2011 23.2975 39.2011C34.346 39.2011 40.3854 30.415 40.3854 22.7953L40.3652 22.0488C41.5452 21.2407 42.5661 20.2255 43.3693 19.0697Z" fill="#31405B"/>
</svg>
