<svg width="56" height="56" viewBox="0 0 56 56" fill="none" xmlns="http://www.w3.org/2000/svg">
<rect width="56" height="56" rx="15" fill="#EBD96B"/>
<path d="M22.1308 15.5067H22.6308V15.5H33.876C38.0754 15.5 41.5 18.9296 41.5 23.1288V34.8712C41.5 39.0706 38.0751 42.5 33.8827 42.5H22.1308C17.93 42.5 14.5 39.0757 14.5 34.8846V23.1355C14.5 18.9369 17.9308 15.5067 22.1308 15.5067ZM15.6538 23.1413V23.1423V34.8914C15.6538 38.4724 18.5372 41.3534 22.1308 41.3534H33.8827C37.4643 41.3534 40.3462 38.4709 40.3462 34.8779V23.1355C40.3462 19.5422 37.4639 16.6601 33.876 16.6601H22.1308C18.5423 16.6601 15.6611 19.5425 15.6538 23.1413ZM36.0452 20.3901C36.0452 20.0674 36.2991 19.8134 36.6221 19.8134C36.9451 19.8134 37.199 20.0674 37.199 20.3901C37.199 20.7127 36.9451 20.9667 36.6221 20.9667C36.2991 20.9667 36.0452 20.7127 36.0452 20.3901ZM20.9683 29.0034C20.9683 25.1345 24.1366 21.9667 28.0067 21.9667C31.8769 21.9667 35.0452 25.1345 35.0452 29.0034C35.0452 32.8723 31.8769 36.04 28.0067 36.04C24.1366 36.04 20.9683 32.8723 20.9683 29.0034ZM33.8913 29.0034C33.8913 25.7394 31.2712 23.12 28.0067 23.12C24.7422 23.12 22.1221 25.7394 22.1221 29.0034C22.1221 32.2674 24.7422 34.8867 28.0067 34.8867C31.2712 34.8867 33.8913 32.2674 33.8913 29.0034Z" fill="#31405B" stroke="#31405B"/>
</svg>
